<?xml version="1.0" encoding="UTF-8" standalone="no"?>
<svg
   xmlns:dc="http://purl.org/dc/elements/1.1/"
   xmlns:cc="http://creativecommons.org/ns#"
   xmlns:rdf="http://www.w3.org/1999/02/22-rdf-syntax-ns#"
   xmlns:svg="http://www.w3.org/2000/svg"
   xmlns="http://www.w3.org/2000/svg"
   viewBox="0 0 1122.52 793.70135"
   height="793.70135"
   width="1122.52"
   xml:space="preserve"
   id="svg2"
   version="1.1"><metadata
     id="metadata8"><rdf:RDF><cc:Work
         rdf:about=""><dc:format>image/svg+xml</dc:format><dc:type
           rdf:resource="http://purl.org/dc/dcmitype/StillImage" /></cc:Work></rdf:RDF></metadata><defs
     id="defs6"><clipPath
       id="clipPath18"
       clipPathUnits="userSpaceOnUse"><path
         id="path16"
         d="M 0,595.276 H 841.89 V 0 H 0 Z" /></clipPath></defs><g
     transform="matrix(1.3333333,0,0,-1.3333333,0,793.70133)"
     id="g10"><g
       id="g12"><g
         clip-path="url(#clipPath18)"
         id="g14"><g
           transform="translate(538.5098,357.7751)"
           id="g20"><path
             id="path22"
             style="fill:#8cb2b2;fill-opacity:1;fill-rule:nonzero;stroke:none"
             d="M 0,0 C -24.811,-6.491 -37.949,-12.484 -40.945,12.983 -46.546,60.59 -85.886,59.92 -85.886,59.92 h -27.28 -27.28 c 0,0 -39.34,0.67 -44.941,-46.937 -2.996,-25.467 -16.135,-19.474 -40.946,-12.983 -44.287,11.587 -70.5,28.897 -61.917,45.439 15.286,29.461 80.526,47.437 175.084,47.437 C -18.608,92.876 46.632,74.9 61.918,45.439 70.501,28.897 44.288,11.587 0,0 m 121.312,-155.153 c -9.709,71.607 -32.163,209.358 -32.163,209.358 0,0 -7.762,56.436 -202.315,56.436 -194.553,0 -202.315,-56.436 -202.315,-56.436 0,0 -22.453,-137.751 -32.163,-209.358 -9.709,-71.605 234.478,-76.805 234.478,-76.805 0,0 244.187,5.2 234.478,76.805" /></g><g
           transform="translate(289.8955,238.7834)"
           id="g24"><path
             id="path26"
             style="fill:#ffffff;fill-opacity:1;fill-rule:nonzero;stroke:none"
             d="M 0,0 C 2.193,0.871 3.502,2.019 3.926,3.433 3.608,6.522 3,10.808 2.102,16.292 c -0.054,0.542 -0.266,1.937 -0.635,4.187 -0.476,1.098 -1.521,2.247 -3.131,3.455 -1.612,1.207 -3.421,2.005 -5.426,2.398 -2.216,0.434 -4.194,0.232 -5.933,-0.609 -1.739,-0.841 -3.097,-2.208 -4.07,-4.105 -0.975,-1.896 -1.462,-4.119 -1.462,-6.674 0,-3.671 1.013,-7.001 3.042,-9.975 2.027,-2.976 4.94,-4.85 8.74,-5.593 C -4.451,-1.077 -2.193,-0.87 0,0 m 11.944,0.597 c 0.423,-2.893 0.727,-5.151 0.914,-6.778 0.184,-1.628 0.278,-3.186 0.278,-4.675 0,-3.936 -0.808,-7.288 -2.423,-10.045 -1.616,-2.756 -3.892,-4.731 -6.827,-5.906 -2.935,-1.173 -6.332,-1.394 -10.184,-0.644 -2.957,0.575 -5.672,1.709 -8.148,3.389 -2.477,1.682 -4.451,3.698 -5.924,6.037 -1.474,2.339 -2.21,4.68 -2.21,7.021 0,2.025 1.235,2.761 3.71,2.234 1.579,-0.335 2.527,-1.304 2.844,-2.914 0.526,-2.554 1.619,-4.607 3.279,-6.142 1.661,-1.537 3.757,-2.557 6.29,-3.05 3.801,-0.74 6.721,-0.109 8.757,1.859 2.034,1.971 3.054,5.195 3.054,9.664 0,1.437 -0.133,3.056 -0.397,4.859 C 3.739,-5.767 2.087,-6.68 0,-7.222 -2.088,-7.765 -4.478,-7.778 -7.169,-7.25 c -3.8,0.743 -7.16,2.323 -10.082,4.722 -2.923,2.395 -5.172,5.296 -6.749,8.674 -1.578,3.38 -2.366,6.856 -2.366,10.42 0,3.671 0.775,6.902 2.326,9.7 1.551,2.797 3.76,4.801 6.631,6.033 2.869,1.232 6.15,1.475 9.845,0.75 4.116,-0.809 7.366,-2.448 9.745,-4.96 0.211,0.6 0.687,1.682 1.427,3.252 0.528,0.968 1.401,1.344 2.619,1.128 1.004,-0.178 1.97,-0.625 2.898,-1.344 0.925,-0.718 1.415,-1.509 1.469,-2.368 0,-0.372 -0.028,-0.634 -0.08,-0.784 -0.901,-2.718 -1.43,-4.438 -1.588,-5.154 0.9,-6.646 1.8,-13.291 2.7,-19.934 z" /></g><g
           transform="translate(339.7661,232.1838)"
           id="g28"><path
             id="path30"
             style="fill:#ffffff;fill-opacity:1;fill-rule:nonzero;stroke:none"
             d="m 0,0 c 2.449,2.03 3.676,5.288 3.676,9.757 0,2.873 -0.548,5.528 -1.639,7.965 -1.092,2.438 -2.664,4.427 -4.713,5.975 -2.05,1.55 -4.405,2.492 -7.064,2.837 -3.937,0.512 -7.086,-0.421 -9.449,-2.824 -2.364,-2.402 -3.545,-5.883 -3.545,-10.459 0,-4.68 1.247,-8.327 3.744,-10.917 2.496,-2.589 5.632,-4.142 9.409,-4.63 C -5.645,-2.806 -2.451,-2.029 0,0 m -24.765,-1.488 c -3.954,3.921 -5.928,9.23 -5.928,15.879 0,4.204 0.835,7.794 2.506,10.779 1.671,2.985 4.059,5.146 7.166,6.505 3.106,1.358 6.785,1.748 11.042,1.195 4.148,-0.54 7.861,-1.863 11.137,-3.995 3.276,-2.131 5.835,-4.916 7.674,-8.38 1.839,-3.463 2.759,-7.371 2.759,-11.734 0,-6.382 -1.92,-11.093 -5.758,-14.084 -3.836,-2.989 -8.924,-4.115 -15.254,-3.298 -6.277,0.81 -11.39,3.213 -15.344,7.133" /></g><g
           transform="translate(415.5356,227.5744)"
           id="g32"><path
             id="path34"
             style="fill:#ffffff;fill-opacity:1;fill-rule:nonzero;stroke:none"
             d="m 0,0 c 2.274,2.472 3.412,6.001 3.412,10.577 0,4.682 -1.124,8.174 -3.372,10.491 -2.248,2.316 -5.165,3.51 -8.75,3.599 -2.462,0.062 -4.644,-0.405 -6.542,-1.404 -1.9,-1.001 -3.371,-2.181 -4.414,-3.549 -1.042,-1.368 -1.564,-2.53 -1.564,-3.487 0,-5.8 -0.028,-10.72 -0.081,-14.761 0.214,-0.542 0.963,-1.212 2.247,-2.006 1.284,-0.796 2.835,-1.491 4.655,-2.082 1.818,-0.591 3.612,-0.909 5.378,-0.954 C -5.287,-3.672 -2.276,-2.471 0,0 m 1.766,28.668 c 2.971,-1.602 5.325,-3.951 7.066,-7.064 1.739,-3.116 2.609,-6.822 2.609,-11.132 0,-4.257 -0.843,-7.945 -2.529,-11.055 -1.686,-3.11 -4.042,-5.47 -7.066,-7.06 -3.024,-1.591 -6.462,-2.347 -10.316,-2.252 -2.837,0.07 -5.472,0.524 -7.905,1.355 -2.436,0.83 -4.187,1.647 -5.256,2.438 l -0.081,-4.306 c -0.133,-4.543 -0.267,-9.086 -0.401,-13.629 -0.054,-0.954 -0.441,-1.695 -1.163,-2.224 -0.723,-0.526 -1.699,-0.76 -2.928,-0.701 -1.232,0.062 -2.193,0.429 -2.888,1.104 -0.696,0.675 -1.016,1.517 -0.963,2.525 0.321,6.474 0.508,12.662 0.562,18.564 0.027,1.861 0.053,3.721 0.08,5.582 0.106,6.699 0.161,12.681 0.161,17.948 0,1.544 -0.175,2.815 -0.522,3.818 -0.349,1.002 -0.842,1.921 -1.483,2.755 -0.055,0.107 -0.241,0.331 -0.562,0.669 -0.321,0.338 -0.481,0.771 -0.481,1.305 0,0.904 0.521,1.725 1.564,2.466 1.042,0.741 2.017,1.061 2.927,0.962 0.642,-0.086 1.176,-0.351 1.605,-0.798 0.427,-0.392 0.962,-1.057 1.604,-1.991 0.642,-0.936 1.176,-1.888 1.604,-2.866 1.23,1.702 3.116,3.163 5.658,4.4 2.54,1.237 5.577,1.804 9.109,1.718 3.693,-0.091 7.024,-0.928 9.995,-2.531" /></g><g
           transform="translate(464.2168,228.2502)"
           id="g36"><path
             id="path38"
             style="fill:#ffffff;fill-opacity:1;fill-rule:nonzero;stroke:none"
             d="m 0,0 c 2.459,2.443 3.689,5.909 3.689,10.377 0,2.872 -0.548,5.436 -1.643,7.688 -1.097,2.255 -2.675,3.978 -4.733,5.181 -2.059,1.203 -4.426,1.747 -7.1,1.643 -3.96,-0.156 -7.13,-1.619 -9.511,-4.422 -2.382,-2.804 -3.572,-6.484 -3.572,-11.06 0,-4.68 1.257,-8.115 3.772,-10.283 2.515,-2.167 5.672,-3.187 9.471,-3.038 C -5.669,-3.757 -2.46,-2.443 0,0 m -24.917,-5.677 c -3.988,3.251 -5.981,8.226 -5.981,14.875 0,4.202 0.842,7.936 2.529,11.204 1.685,3.269 4.095,5.835 7.224,7.719 3.131,1.884 6.836,2.898 11.117,3.063 4.173,0.162 7.903,-0.536 11.191,-2.114 3.288,-1.577 5.854,-3.931 7.697,-7.085 1.845,-3.153 2.766,-6.905 2.766,-11.268 0,-6.384 -1.923,-11.417 -5.772,-15.056 -3.848,-3.637 -8.956,-5.62 -15.321,-5.874 -6.312,-0.251 -11.464,1.286 -15.45,4.536" /></g><g
           transform="translate(509.5371,235.5754)"
           id="g40"><path
             id="path42"
             style="fill:#ffffff;fill-opacity:1;fill-rule:nonzero;stroke:none"
             d="m 0,0 c 0.532,-0.471 0.799,-1.345 0.799,-2.622 0,-3.032 -0.986,-5.661 -2.956,-7.876 -1.972,-2.216 -4.477,-3.483 -7.516,-3.791 -4.213,-0.425 -7.255,1.099 -9.122,4.523 -1.869,3.426 -2.803,8.976 -2.803,16.636 0,2.713 0.08,5.433 0.241,8.16 -1.282,-0.028 -2.563,-0.054 -3.844,-0.077 -2.083,-0.059 -3.124,0.954 -3.124,3.029 0,1.064 0.28,1.871 0.841,2.418 0.56,0.548 1.482,0.846 2.763,0.897 1.308,0.025 2.617,0.054 3.924,0.086 0.32,3.379 0.934,8.086 1.842,14.126 0.319,1.945 1.627,3.014 3.922,3.229 1.333,0.124 2.36,-0.122 3.08,-0.742 0.721,-0.621 1.026,-1.415 0.92,-2.384 -0.747,-4.702 -1.387,-9.341 -1.92,-13.914 2.881,0.172 4.772,0.318 5.68,0.411 1.011,0.107 1.758,-0.042 2.238,-0.441 0.479,-0.402 0.72,-1.08 0.72,-2.038 0,-1.17 -0.254,-2.009 -0.76,-2.516 -0.507,-0.507 -1.427,-0.858 -2.758,-1.049 -1.893,-0.195 -3.786,-0.383 -5.68,-0.565 -0.16,-2.569 -0.24,-5.21 -0.24,-7.923 0,-5.375 0.347,-9.318 1.04,-11.832 0.692,-2.513 1.92,-3.683 3.68,-3.505 2.025,0.206 3.119,1.894 3.278,5.051 0,0.956 0.227,1.698 0.68,2.227 0.452,0.527 1.265,0.853 2.438,0.984 C -1.412,0.637 -0.533,0.47 0,0" /></g><g
           transform="translate(544.6895,240.4455)"
           id="g44"><path
             id="path46"
             style="fill:#ffffff;fill-opacity:1;fill-rule:nonzero;stroke:none"
             d="m 0,0 c 0.529,-0.446 0.795,-1.306 0.795,-2.583 0,-3.033 -0.982,-5.709 -2.942,-8.019 -1.962,-2.309 -4.455,-3.698 -7.48,-4.15 -4.194,-0.627 -7.224,0.75 -9.083,4.086 -1.861,3.337 -2.792,8.842 -2.792,16.502 0,2.713 0.08,5.436 0.24,8.172 -1.276,-0.091 -2.553,-0.178 -3.83,-0.262 -2.075,-0.159 -3.112,0.805 -3.112,2.88 0,1.063 0.279,1.883 0.838,2.459 0.558,0.574 1.476,0.914 2.753,1.027 1.303,0.088 2.606,0.18 3.909,0.275 0.319,3.394 0.93,8.132 1.834,14.214 0.319,1.96 1.621,3.092 3.906,3.417 1.327,0.189 2.35,-0.009 3.068,-0.595 0.716,-0.586 1.021,-1.366 0.915,-2.339 -0.744,-4.739 -1.381,-9.408 -1.912,-14.006 2.869,0.308 4.751,0.547 5.654,0.683 1.008,0.153 1.751,0.042 2.228,-0.334 0.478,-0.379 0.716,-1.046 0.716,-2.004 0,-1.17 -0.252,-2.023 -0.756,-2.552 -0.504,-0.531 -1.42,-0.926 -2.745,-1.181 -1.884,-0.287 -3.768,-0.565 -5.654,-0.837 -0.159,-2.577 -0.239,-5.222 -0.239,-7.935 0,-5.374 0.344,-9.302 1.036,-11.782 0.689,-2.481 1.911,-3.592 3.663,-3.328 2.016,0.303 3.104,2.043 3.263,5.207 0,0.957 0.225,1.71 0.676,2.259 0.45,0.549 1.26,0.916 2.427,1.101 C -1.405,0.569 -0.53,0.445 0,0" /></g><g
           transform="translate(563.5,210.842)"
           id="g48"><path
             id="path50"
             style="fill:#ffffff;fill-opacity:1;fill-rule:nonzero;stroke:none"
             d="m 0,0 c -0.793,0.568 -1.188,1.359 -1.188,2.369 0,0.479 0.104,0.951 0.316,1.416 2.43,6.79 4.753,13.544 6.969,20.261 -2.269,1.093 -4.579,3.319 -6.929,6.682 -2.352,3.36 -4.453,7.178 -6.304,11.449 -1.852,4.269 -3.227,8.219 -4.127,11.84 -0.107,0.407 -0.159,0.798 -0.159,1.17 0,0.903 0.358,1.71 1.072,2.42 0.714,0.709 1.653,1.17 2.818,1.377 1.004,0.18 1.731,0.098 2.181,-0.245 0.449,-0.344 0.78,-0.948 0.992,-1.814 4.546,-14.488 8.901,-22.716 13.067,-24.696 1.845,6.758 4.296,16.463 7.35,29.136 0.262,0.96 0.631,1.678 1.105,2.152 0.474,0.472 1.184,0.811 2.131,1.017 1.263,0.275 2.274,0.219 3.037,-0.171 0.761,-0.389 1.194,-1.025 1.301,-1.905 0.052,-0.202 0.025,-0.5 -0.079,-0.895 C 21.977,54.826 20.557,49.034 19.294,44.185 18.031,39.334 16.61,34.374 15.031,29.307 13.818,25.38 12.331,20.68 10.565,15.211 8.799,9.741 7.389,5.576 6.334,2.705 6.018,1.792 5.608,1.073 5.107,0.548 4.605,0.023 3.881,-0.331 2.931,-0.516 1.769,-0.741 0.792,-0.567 0,0" /></g></g></g></g></svg>